<svg width="20" height="20" viewBox="0 0 20 20" fill="none" xmlns="http://www.w3.org/2000/svg">
<path d="M8.4453 14.8321C8.75216 15.0367 9.1467 15.0557 9.47186 14.8817C9.79701 14.7077 10 14.3688 10 14L10 11.2019L15.4453 14.8321C15.7522 15.0367 16.1467 15.0557 16.4719 14.8817C16.797 14.7077 17 14.3688 17 14V6.00005C17 5.63125 16.797 5.29239 16.4719 5.11837C16.1467 4.94435 15.7522 4.96342 15.4453 5.168L10 8.79819V6.00005C10 5.63125 9.79702 5.29239 9.47186 5.11837C9.1467 4.94435 8.75216 4.96342 8.4453 5.168L2.4453 9.16799C2.1671 9.35346 2 9.66569 2 10C2 10.3344 2.1671 10.6466 2.4453 10.8321L8.4453 14.8321Z" fill="#111827"/>
</svg>
